<?xml version="1.0" encoding="utf-8"?>
<!-- Generator: Adobe Illustrator 19.2.1, SVG Export Plug-In . SVG Version: 6.00 Build 0)  -->
<svg version="1.1" id="Ebene_1" xmlns="http://www.w3.org/2000/svg" xmlns:xlink="http://www.w3.org/1999/xlink" x="0px" y="0px"
	 viewBox="0 0 672.1 141.7" style="enable-background:new 0 0 672.1 141.7;" xml:space="preserve">
<style type="text/css">
	.st0{fill:#1A4B7E;}
	.st1{fill:#8A98BA;}
</style>
<g>
	<g>
		<path class="st0" d="M140.6,71.8C74.4,88,33.2,110.5,33.2,131.8c0,3.3,1,6.5,3,9.7h104.4V71.8z"/>
		<path class="st0" d="M33.2,73.5c21.1-15.2,57.9-30.4,107.4-42.1V13.7C74.6,29.9,33.5,52.3,33.2,73.5z"/>
		<path class="st0" d="M0,141.6h36.1c-10-6.4-15.4-13.3-15.4-20.4c0-5,2.7-9.8,7.7-14.5c-5-4.7-7.7-9.5-7.7-14.5
			c0-5,2.7-9.9,7.7-14.5c-5-4.7-7.7-9.5-7.7-14.5c0-21.2,46.5-44.9,120-61.4V0.9H0V141.6z"/>
		<path class="st0" d="M33.2,102.6c21.1-15.2,57.9-30.4,107.4-42.1V42.7C74.6,58.9,33.5,81.4,33.2,102.6z"/>
		<path class="st0" d="M36.2,141.6h-0.2c0.1,0.1,0.2,0.1,0.3,0.2C36.3,141.7,36.3,141.6,36.2,141.6z"/>
		<polygon class="st0" points="198.4,14.9 181.7,14.9 181.7,0.3 174.9,0.3 174.9,36.1 181.7,36.1 181.7,20.8 198.4,20.8 198.4,36.1 
			205.3,36.1 205.3,0.3 198.4,0.3 		"/>
		<path class="st0" d="M258,13.1C258,1.6,253,0,242.7,0c-11.4,0-15.1,2-15.1,13.1v9.6c0,11.7,4.1,13.6,15.1,13.6
			c10.8,0,15.3-2.2,15.3-13.6V13.1z M251.1,22.7c0,6.9-2.1,7.8-8.4,7.8c-6.9,0-8.3-0.7-8.3-7.8v-9.6c0.1-5.7,0.9-7.2,8.3-7.2
			c6.1,0,8.5,0.5,8.4,7.2V22.7z"/>
		<path class="st0" d="M310.7,25.6v-2.3h-6.9v2c0,5.1-2.5,5.3-8,5.3c-7.2,0-8.1-1.4-8.1-8.5V14c0-7,1.2-8.2,8.1-8.2
			c6,0,7.6,0.3,7.6,4.4v2h6.9v-2C309.8,0,304.7,0,295.8,0c-10.5,0-15,2.6-15,14v8.2c0.1,10.4,2.4,14.6,15,14.1
			C304.7,36,310.8,36.3,310.7,25.6z"/>
		<polygon class="st0" points="341.9,20.8 358.5,20.8 358.5,36.1 365.4,36.1 365.4,0.3 358.5,0.3 358.5,14.9 341.9,14.9 341.9,0.3 
			335,0.3 335,36.1 341.9,36.1 		"/>
		<path class="st0" d="M403.4,36.3c9.2,0,14-0.9,14-10.9c0-9.1-3-9.7-14-10.4c-7-0.4-7.9-0.6-7.9-5c0-3.8,1.1-4.5,7.9-4.5
			c4.8,0,6.4,0.1,6.4,4v1.1h6.9V9.6c0-9.4-6-9.6-13.3-9.6c-8.6,0-14.8,0.3-14.8,10.1c0,10.4,6.1,10.1,13.8,10.6
			c5.3,0.3,8.1-0.4,8.1,4.7c0,4.1-0.9,5.3-7.1,5.3c-6.3,0-8.1-0.3-8.1-4.4v-1.7h-6.9v1.7C388.4,36.6,395.4,36.3,403.4,36.3z"/>
		<path class="st0" d="M463.2,25.2c0,5.1-2.5,5.3-8,5.3c-7.2,0-8.1-1.4-8.1-8.5V14c0-7,1.2-8.2,8.1-8.2c6,0,7.6,0.3,7.6,4.4v2h6.9
			v-2C469.2,0,464.1,0,455.2,0c-10.5,0-15,2.6-15,14v8.2c0.1,10.4,2.4,14.6,15,14.1c8.9-0.4,15,0,14.9-10.8v-2.3h-6.9V25.2z"/>
		<polygon class="st0" points="523.4,36.1 523.4,0.3 516.5,0.3 516.5,14.9 499.9,14.9 499.9,0.3 493,0.3 493,36.1 499.9,36.1 
			499.9,20.8 516.5,20.8 516.5,36.1 		"/>
		<path class="st0" d="M577.6,25.7V0.3h-6.9v25.4c0,3.9-1.7,4.8-8.1,4.8c-6.6,0-8-1.1-8-4.8V0.3h-6.9v25.4c0,10,6.4,10.6,14.8,10.6
			C571.4,36.3,577.6,35.7,577.6,25.7z"/>
		<polygon class="st0" points="611.8,0.3 605,0.3 605,36.1 628.5,36.1 628.5,30.2 611.8,30.2 		"/>
		<polygon class="st0" points="671.4,30.2 653.6,30.2 653.6,20.7 670.3,20.7 670.3,15.1 653.6,15.1 653.6,6.2 671.3,6.2 671.3,0.3 
			646.7,0.3 646.7,36.1 671.4,36.1 		"/>
		<path class="st0" d="M188.2,75c-7-0.4-7.9-0.6-7.9-5c0-3.8,1.1-4.5,7.9-4.5c4.8,0,6.4,0.1,6.4,4v1.1h6.9v-1.1
			c0-9.4-6-9.6-13.3-9.6c-8.6,0-14.8,0.3-14.8,10.1c0,10.4,6.1,10.1,13.8,10.6c5.3,0.3,8.1-0.4,8.1,4.7c0,4.1-0.9,5.3-7.1,5.3
			c-6.3,0-8.1-0.3-8.1-4.4v-1.7h-6.9v1.7c0,10.3,7.1,10,15,10c9.2,0,14-0.9,14-10.9C202.3,76.3,199.3,75.7,188.2,75z"/>
		<path class="st0" d="M237.2,85.1c0,5.1-2.5,5.3-8,5.3c-7.2,0-8.1-1.4-8.1-8.5V74c0-7,1.2-8.2,8.1-8.2c6,0,7.6,0.3,7.6,4.4v2h6.9
			v-2C243.2,60,238.1,60,229.2,60c-10.5,0-15,2.6-15,14v8.2c0.1,10.4,2.4,14.6,15,14.1c8.9-0.4,15,0,14.9-10.8v-2.3h-6.9V85.1z"/>
		<polygon class="st0" points="280.8,74.9 264.2,74.9 264.2,60.2 257.3,60.2 257.3,96 264.2,96 264.2,80.7 280.8,80.7 280.8,96 
			287.7,96 287.7,60.2 280.8,60.2 		"/>
		<polygon class="st0" points="325.4,86.8 325.2,86.8 315.5,60.2 304.5,60.2 304.5,96 311.3,96 310.8,66 310.9,66 322.3,96 
			328.4,96 339.7,65.9 339.9,65.9 339.3,96 346.2,96 346.2,60.2 334.9,60.2 		"/>
		<path class="st0" d="M368.7,60.2L356.8,96h7.1l2.2-6.8h15.5L384,96h7l-12.1-35.8H368.7z M367.8,84l6.1-18.6h0.1l6.2,18.6H367.8z"
			/>
		<polygon class="st0" points="409.3,60.2 402.5,60.2 402.5,96 426,96 426,90.1 409.3,90.1 		"/>
		<polygon class="st0" points="465.2,60.2 456.8,60.2 444.9,74.8 441.7,74.8 441.7,60.2 434.8,60.2 434.8,96 441.7,96 441.7,80.7 
			444.9,80.7 458,96 466.7,96 450.7,77.7 		"/>
		<path class="st0" d="M484.6,60.2L472.7,96h7.1l2.2-6.8h15.5l2.3,6.8h7l-12.1-35.8H484.6z M483.6,84l6.1-18.6h0.1L496,84H483.6z"/>
		<polygon class="st0" points="526.2,60.2 519.3,60.2 519.3,96 542.9,96 542.9,90.1 526.2,90.1 		"/>
		<path class="st0" d="M569.8,60.2h-17.1V96H571c10.8,0,12.9-6.6,12.9-14v-8.4C583.9,63.8,579.7,60.2,569.8,60.2z M577,82
			c0,4-1.4,8.2-6.1,8.2h-11.4v-24h10.2c5.2,0,7.2,1.5,7.2,7.4V82z"/>
		<polygon class="st0" points="604.8,80.7 621.6,80.7 621.6,75 604.8,75 604.8,66.1 622.5,66.1 622.5,60.2 598,60.2 598,96 
			622.6,96 622.6,90.1 604.8,90.1 		"/>
		<polygon class="st0" points="664.7,60.2 665.3,90.1 665.1,90.1 649.8,60.2 638.4,60.2 638.4,96 645.3,96 644.7,66.1 645,66.1 
			660.2,96 671.6,96 671.6,60.2 		"/>
	</g>
	<g>
		<path class="st1" d="M183.6,136.6c0,1.8-0.8,2.2-3.7,2.2c-3,0-3.6-0.5-3.6-2.2v-11.6h-3.1v11.6c0,4.6,2.9,4.8,6.8,4.8
			c4,0,6.8-0.3,6.8-4.8v-11.6h-3.1V136.6z"/>
		<polygon class="st1" points="205.8,138.7 205.7,138.7 198.7,125.1 193.5,125.1 193.5,141.4 196.7,141.4 196.4,127.7 196.5,127.7 
			203.4,141.4 208.6,141.4 208.6,125.1 205.5,125.1 		"/>
		<rect x="215.9" y="125.1" class="st1" width="3.1" height="16.3"/>
		<polygon class="st1" points="231.8,138.8 231.7,138.8 227.4,125.1 224.2,125.1 229.4,141.4 234.1,141.4 239.4,125.1 236.1,125.1 
					"/>
		<polygon class="st1" points="247.4,134.4 255.1,134.4 255.1,131.8 247.4,131.8 247.4,127.7 255.5,127.7 255.5,125.1 244.3,125.1 
			244.3,141.4 255.5,141.4 255.5,138.7 247.4,138.7 		"/>
		<path class="st1" d="M275.5,129.9c0-3.7-1.4-4.8-4.9-4.9h-8.3v16.3h3.1V136h4.8c1.5,0,2.1,1,2.1,2.3v3h3.1v-3
			c0-2.3-0.5-3.5-2.8-3.7v-0.1C275.4,134.1,275.5,132.4,275.5,129.9z M269.5,133.3h-4.1v-5.6h4.3c2.2,0,2.7,0.4,2.7,2.7
			C272.4,132.8,271.8,133.3,269.5,133.3z"/>
		<path class="st1" d="M288.1,131.8c-3.2-0.2-3.6-0.3-3.6-2.3c0-1.7,0.5-2,3.6-2c2.2,0,2.9,0.1,2.9,1.8v0.5h3.1v-0.5
			c0-4.3-2.7-4.4-6-4.4c-3.9,0-6.7,0.1-6.7,4.6c0,4.7,2.8,4.6,6.3,4.8c2.4,0.1,3.7-0.2,3.7,2.2c0,1.9-0.4,2.4-3.2,2.4
			c-2.9,0-3.7-0.1-3.7-2v-0.8h-3.1v0.8c0,4.7,3.2,4.6,6.8,4.6c4.2,0,6.4-0.4,6.4-5C294.5,132.4,293.1,132.1,288.1,131.8z"/>
		<rect x="301.1" y="125.1" class="st1" width="3.1" height="16.3"/>
		<polygon class="st1" points="309.2,127.7 314,127.7 314,141.4 317.1,141.4 317.1,127.7 321.9,127.7 321.9,125.1 309.2,125.1 		"/>
		<polygon class="st1" points="333.1,132 333.1,132 329.2,125.1 325.6,125.1 331.5,135.1 331.5,141.4 334.7,141.4 334.7,135.1 
			340.7,125.1 337.1,125.1 		"/>
		<path class="st1" d="M361.5,124.9c-5.2,0-6.9,0.9-6.9,6v4.4c0,5.3,1.8,6.2,6.9,6.2c4.9,0,7-1,7-6.2v-4.4
			C368.5,125.6,366.2,124.9,361.5,124.9z M365.3,135.3c0,3.2-1,3.5-3.8,3.5c-3.1,0-3.8-0.3-3.8-3.5v-4.4c0.1-2.6,0.4-3.3,3.8-3.3
			c2.8,0,3.9,0.2,3.8,3.3V135.3z"/>
		<polygon class="st1" points="374.5,141.4 377.7,141.4 377.7,134.6 384.9,134.6 384.9,132.1 377.7,132.1 377.7,127.7 385.3,127.7 
			385.3,125.1 374.5,125.1 		"/>
		<path class="st1" d="M404.2,125.1l-5.4,16.3h3.2l1-3.1h7l1.1,3.1h3.2l-5.5-16.3H404.2z M403.8,135.9l2.8-8.5h0l2.8,8.5H403.8z"/>
		<path class="st1" d="M427.1,125.1h-7.2v16.3h3.1v-5.3h4.1c4.3,0,5.8-0.8,5.8-5.4C432.9,126.1,431.5,125.1,427.1,125.1z
			 M427.1,133.4H423v-5.7h4.1c2.3,0,2.7,0.6,2.7,2.9C429.8,132.9,429.4,133.4,427.1,133.4z"/>
		<path class="st1" d="M446,125.1h-7.2v16.3h3.1v-5.3h4.1c4.3,0,5.8-0.8,5.8-5.4C451.8,126.1,450.4,125.1,446,125.1z M446,133.4
			h-4.1v-5.7h4.1c2.3,0,2.7,0.6,2.7,2.9C448.7,132.9,448.2,133.4,446,133.4z"/>
		<polygon class="st1" points="461,125.1 457.9,125.1 457.9,141.4 468.6,141.4 468.6,138.7 461,138.7 		"/>
		<rect x="473.7" y="125.1" class="st1" width="3.1" height="16.3"/>
		<polygon class="st1" points="487.9,134.4 495.5,134.4 495.5,131.8 487.9,131.8 487.9,127.7 495.9,127.7 495.9,125.1 484.7,125.1 
			484.7,141.4 496,141.4 496,138.7 487.9,138.7 		"/>
		<path class="st1" d="M510.9,125.1h-7.8v16.3h8.3c4.9,0,5.9-3,5.9-6.4v-3.8C517.4,126.7,515.4,125.1,510.9,125.1z M514.2,135
			c0,1.8-0.7,3.7-2.8,3.7h-5.2v-11h4.7c2.4,0,3.3,0.7,3.3,3.4V135z"/>
		<path class="st1" d="M539.6,131.8c-3.2-0.2-3.6-0.3-3.6-2.3c0-1.7,0.5-2,3.6-2c2.2,0,2.9,0.1,2.9,1.8v0.5h3.1v-0.5
			c0-4.3-2.7-4.4-6-4.4c-3.9,0-6.7,0.1-6.7,4.6c0,4.7,2.8,4.6,6.3,4.8c2.4,0.1,3.7-0.2,3.7,2.2c0,1.9-0.4,2.4-3.2,2.4
			c-2.9,0-3.7-0.1-3.7-2v-0.8h-3.1v0.8c0,4.7,3.2,4.6,6.8,4.6c4.2,0,6.4-0.4,6.4-5C546,132.4,544.6,132.1,539.6,131.8z"/>
		<path class="st1" d="M561.9,136.4c0,2.3-1.1,2.4-3.7,2.4c-3.3,0-3.7-0.6-3.7-3.9v-3.6c0-3.2,0.5-3.7,3.7-3.7c2.7,0,3.5,0.1,3.5,2
			v0.9h3.1v-0.9c-0.2-4.7-2.5-4.7-6.6-4.7c-4.8,0-6.8,1.2-6.8,6.4v3.7c0.1,4.8,1.1,6.7,6.8,6.4c4-0.2,6.8,0,6.8-4.9v-1.1h-3.1V136.4
			z"/>
		<rect x="571.2" y="125.1" class="st1" width="3.1" height="16.3"/>
		<polygon class="st1" points="585.3,134.4 593,134.4 593,131.8 585.3,131.8 585.3,127.7 593.4,127.7 593.4,125.1 582.2,125.1 
			582.2,141.4 593.5,141.4 593.5,138.7 585.3,138.7 		"/>
		<polygon class="st1" points="613,138.7 612.9,138.7 605.9,125.1 600.7,125.1 600.7,141.4 603.9,141.4 603.6,127.7 603.7,127.7 
			610.6,141.4 615.8,141.4 615.8,125.1 612.7,125.1 		"/>
		<path class="st1" d="M632.9,136.4c0,2.3-1.1,2.4-3.7,2.4c-3.3,0-3.7-0.6-3.7-3.9v-3.6c0-3.2,0.5-3.7,3.7-3.7c2.7,0,3.5,0.1,3.5,2
			v0.9h3.1v-0.9c-0.2-4.7-2.5-4.7-6.6-4.7c-4.8,0-6.8,1.2-6.8,6.4v3.7c0.1,4.8,1.1,6.7,6.8,6.4c4-0.2,6.8,0,6.8-4.9v-1.1h-3.1V136.4
			z"/>
		<polygon class="st1" points="645.1,134.4 652.7,134.4 652.7,131.8 645.1,131.8 645.1,127.7 653.2,127.7 653.2,125.1 642,125.1 
			642,141.4 653.2,141.4 653.2,138.7 645.1,138.7 		"/>
		<path class="st1" d="M665.7,131.8c-3.2-0.2-3.6-0.3-3.6-2.3c0-1.7,0.5-2,3.6-2c2.2,0,2.9,0.1,2.9,1.8v0.5h3.1v-0.5
			c0-4.3-2.7-4.4-6-4.4c-3.9,0-6.7,0.1-6.7,4.6c0,4.7,2.8,4.6,6.3,4.8c2.4,0.1,3.7-0.2,3.7,2.2c0,1.9-0.4,2.4-3.2,2.4
			c-2.9,0-3.7-0.1-3.7-2v-0.8h-3.1v0.8c0,4.7,3.2,4.6,6.8,4.6c4.2,0,6.4-0.4,6.4-5C672.1,132.4,670.7,132.1,665.7,131.8z"/>
	</g>
</g>
</svg>
